<svg xmlns="http://www.w3.org/2000/svg" viewBox="0 0 680 142" width="680" height="142" role="img" aria-label="BiblioTech — Sistema Escolar">
  <title>BiblioTech</title>
  <desc>Logotipo do sistema BiblioTech, Sistema de Gerenciamento de Biblioteca Escolar</desc>
  <defs>
    <style><![CDATA[
      @import url('https://fonts.googleapis.com/css2?family=Outfit:wght@300;700&display=swap');
    ]]></style>
  </defs>

  <!-- Ícone: dois livros inclinados com detalhes internos -->
  <g transform="translate(182, 68)">

    <!-- Página esquerda — verde escuro, inclinada à esquerda -->
    <g transform="rotate(-13, 0, 22)">
      <rect x="-36" y="-33" width="36" height="55" rx="6" fill="#1A5C38"/>
      <rect x="-30" y="-18" width="22" height="3"  rx="1.5" fill="white" opacity="0.82"/>
      <rect x="-30" y="-8"  width="22" height="3"  rx="1.5" fill="white" opacity="0.82"/>
      <rect x="-30" y="2"   width="14" height="3"  rx="1.5" fill="white" opacity="0.82"/>
    </g>

    <!-- Página direita — verde médio, inclinada à direita -->
    <g transform="rotate(13, 0, 22)">
      <rect x="0" y="-33" width="36" height="55" rx="6" fill="#48B07C"/>
      <circle cx="18" cy="-4"  r="4.5" fill="white" opacity="0.90"/>
      <circle cx="8"  cy="-19" r="2.5" fill="white" opacity="0.70"/>
      <circle cx="28" cy="-19" r="2.5" fill="white" opacity="0.70"/>
      <circle cx="18" cy="12"  r="2.5" fill="white" opacity="0.70"/>
      <line x1="18" y1="-4" x2="8"  y2="-19" stroke="white" stroke-width="1.5" stroke-linecap="round" opacity="0.55"/>
      <line x1="18" y1="-4" x2="28" y2="-19" stroke="white" stroke-width="1.5" stroke-linecap="round" opacity="0.55"/>
      <line x1="18" y1="-4" x2="18" y2="12"  stroke="white" stroke-width="1.5" stroke-linecap="round" opacity="0.55"/>
    </g>

    <!-- Lombada central — sobrepõe as bordas internas das páginas -->
    <rect x="-5" y="-27" width="10" height="49" rx="5" fill="#0F3A25"/>
  </g>

  <!-- Separador vertical sutil -->
  <line x1="250" y1="40" x2="250" y2="102" stroke="#C8D5CC" stroke-width="0.75"/>

  <!-- Nome: Biblio (negrito escuro) + Tech (leve, verde médio) -->
  <text y="80" font-family="'Outfit', 'Helvetica Neue', Helvetica, Arial, sans-serif">
    <tspan x="264" font-size="48" font-weight="700" fill="#1A5C38">Biblio</tspan><tspan font-size="48" font-weight="300" fill="#48B07C">Tech</tspan>
  </text>

  <!-- Tagline -->
  <text
    x="266" y="99"
    font-family="'Outfit', 'Helvetica Neue', Helvetica, Arial, sans-serif"
    font-size="12"
    font-weight="300"
    fill="#9CA3AF"
    letter-spacing="3.5">SISTEMA ESCOLAR</text>
</svg>
